<svg xmlns="http://www.w3.org/2000/svg" width="64" height="64" fill="none" viewBox="0 0 64 64">
  <rect width="64" height="64" rx="18" fill="#4F46E5"/>
  <g stroke="#fff" stroke-linecap="round" stroke-linejoin="round">
    <path stroke-width="4.8" d="M32 13v38"/>
    <path stroke-width="4.8" d="M27 50h10"/>
    <path stroke-width="4.2" d="M32 18.2C24.74 9.7 15.05 8.8 7.8 13.12c3.84 6.38 10.21 9.95 19.16 10.75"/>
    <path stroke-width="4.2" d="M32 18.2c7.26-8.5 16.95-9.4 24.2-5.08-3.84 6.38-10.21 9.95-19.16 10.75"/>
    <path stroke-width="4.4" d="M26.2 24.25c-7.09 2.12-10.98 7.03-10.98 12.44 0 5.69 4.3 8.69 9.6 11.57 5.48 2.99 7.18 4.87 7.18 8.44 0 3.42-2.16 6.13-6.03 8.05"/>
    <path stroke-width="4.4" d="M37.8 24.25c7.09 2.12 10.98 7.03 10.98 12.44 0 5.69-4.3 8.69-9.6 11.57-5.48 2.99-7.18 4.87-7.18 8.44 0 3.42 2.16 6.13 6.03 8.05"/>
    <path stroke-width="3.2" d="M26.03 20.07c-1.72-1.54-3.52-2.29-5.63-2.29-1.94 0-3.49.61-4.67 1.82"/>
    <path stroke-width="3.2" d="M37.97 20.07c1.72-1.54 3.52-2.29 5.63-2.29 1.94 0 3.49.61 4.67 1.82"/>
  </g>
  <circle cx="20.38" cy="17.65" r="2.2" fill="#fff"/>
  <circle cx="43.62" cy="17.65" r="2.2" fill="#fff"/>
</svg>
